<?xml version="1.0" encoding="utf-8"?>
<!-- Generator: Adobe Illustrator 25.4.0, SVG Export Plug-In . SVG Version: 6.00 Build 0)  -->
<svg version="1.1" id="Layer_1" xmlns="http://www.w3.org/2000/svg" xmlns:xlink="http://www.w3.org/1999/xlink" x="0px" y="0px"
	 viewBox="0 0 100 50" style="enable-background:new 0 0 100 50;" xml:space="preserve">
<style type="text/css">
	.st0{fill:#FFFFFF;stroke:#000000;stroke-miterlimit:10;}
	.st1{fill:#FFFFFF;}
	.st2{font-family:'MyriadPro-Regular';}
	.st3{font-size:20.3021px;}
</style>
<g id="Mouse">
	<g>
		<path class="st0" d="M54.88,36.5l-12.29-7.84c-0.22-0.14-0.5-0.15-0.73-0.02c-0.23,0.13-0.37,0.37-0.37,0.63l0.12,14.56
			c-0.02,0.61,0.81,0.94,1.22,0.49c0,0,3-3.09,3-3.09l4.07,6.82c0.19,0.34,0.62,0.47,0.96,0.28l3.35-1.85
			c0.34-0.19,0.47-0.62,0.28-0.96l-4.07-6.82l4.22-0.89C55.26,37.68,55.41,36.81,54.88,36.5z"/>
	</g>
</g>
<rect x="5" y="9.83" width="36.19" height="17.65"/>
<text transform="matrix(1 0 0 1 5.7964 25.6553)" class="st1 st2 st3">Arzt</text>
<text transform="matrix(1 0 0 1 41.5605 25.5166)" class="st2 st3">termin</text>
</svg>
